# xmcd
# Track frame offsets:
# 150
# 23208
# 43836
# 62446
# 80464
# 100949
# 116792
# 130490
# 150960
# 168445
# 186995
# 201900
# 220338
# 237351
#
# Disc length: 3404 seconds
# Revision: 0
# Processed by: cddbd v1.4PL0 Copyright (c) Steve Scherf et al.
# Submitted via: VisiTrax 2.9.5.180 - For more info visit www.synapsa.com
#
DISCID=c30d4a0e
DTITLE=Tim McGraw - Set This Circus Down
DYEAR=2002
DGENRE=Country
TTITLE0=Angel Boy
TTITLE1=Angry all the Time
TTITLE2=Forget About Us
TTITLE3=Grown Men Dont Cry
TTITLE4=Let Me Love you
TTITLE5=Set This Circus Down
TTITLE6=Smilin
TTITLE7=Take Me Away From Here
TTITLE8=Telluride
TTITLE9=Cowboy In Me
TTITLE10=Things Change
TTITLE11=Unbroken
TTITLE12=Why We Said Goodbye
TTITLE13=You Get Used To Somebody
EXTD=
EXTT0=
EXTT1=
EXTT2=
EXTT3=
EXTT4=
EXTT5=
EXTT6=
EXTT7=
EXTT8=
EXTT9=
EXTT10=
EXTT11=
EXTT12=
EXTT13=
PLAYORDER=
